<?xml version="1.0" encoding="UTF-8"?>
<svg width="36px" height="36px" viewBox="0 0 36 36" version="1.1" xmlns="http://www.w3.org/2000/svg" xmlns:xlink="http://www.w3.org/1999/xlink">
    <!-- Generator: Sketch 53.2 (72643) - https://sketchapp.com -->
    <title>ico_instagram</title>
    <desc>Created with Sketch.</desc>
    <g id="Symbols" stroke="none" stroke-width="1" fill="none" fill-rule="evenodd">
        <g id="modulo/desktop/Footer" transform="translate(-719.000000, -92.000000)">
            <g id="icones" transform="translate(612.500000, 93.000000)">
                <g id="ico_instagram" transform="translate(107.500000, 0.000000)">
                    <path d="M34.0001,16.9998 C34.0001,26.3888 26.3891,33.9998 17.0001,33.9998 C7.6111,33.9998 0.0001,26.3888 0.0001,16.9998 C0.0001,7.6108 7.6111,-0.0002 17.0001,-0.0002 C26.3891,-0.0002 34.0001,7.6108 34.0001,16.9998 Z" id="Stroke-1" stroke="#0086FF" stroke-width="2"></path>
                    <path d="M21.1739,16.8783 C21.1739,19.1833 19.3049,21.0523 16.9999,21.0523 C14.6949,21.0523 12.8259,19.1833 12.8259,16.8783 C12.8259,14.5733 14.6949,12.7043 16.9999,12.7043 C19.3049,12.7043 21.1739,14.5733 21.1739,16.8783 Z" id="Stroke-3" stroke="#0086FF" stroke-width="1.5"></path>
                    <path d="M23.5,12.25 C23.5,12.9400669 22.9400669,13.5 22.25,13.5 C21.5599331,13.5 21,12.9400669 21,12.25 C21,11.5599331 21.5599331,11 22.25,11 C22.9400669,11 23.5,11.5599331 23.5,12.25" id="Fill-5" fill="#0086FF"></path>
                    <path d="M21.0753,25.4818 L12.9253,25.4818 C10.4243,25.4818 8.3963,23.4548 8.3963,20.9538 L8.3963,12.8028 C8.3963,10.3028 10.4243,8.2748 12.9253,8.2748 L21.0753,8.2748 C23.5763,8.2748 25.6033,10.3028 25.6033,12.8028 L25.6033,20.9538 C25.6033,23.4548 23.5763,25.4818 21.0753,25.4818 Z" id="Stroke-7" stroke="#0086FF" stroke-width="1.5"></path>
                </g>
            </g>
        </g>
    </g>
</svg>