<?xml version="1.0" encoding="UTF-8"?>
<svg width="34px" height="34px" viewBox="0 0 34 34" version="1.1" xmlns="http://www.w3.org/2000/svg" xmlns:xlink="http://www.w3.org/1999/xlink">
    <!-- Generator: Sketch 53.2 (72643) - https://sketchapp.com -->
    <title>ico_twitter</title>
    <desc>Created with Sketch.</desc>
    <g id="Symbols" stroke="none" stroke-width="1" fill="none" fill-rule="evenodd">
        <g id="modulo/desktop/Footer" transform="translate(-666.000000, -93.000000)">
            <g id="icones" transform="translate(612.500000, 93.000000)">
                <g id="ico_twitter" transform="translate(53.500000, 0.000000)">
                    <circle id="Oval-Copy-3" stroke="#0086FF" stroke-width="2" cx="17" cy="17" r="16"></circle>
                    <path d="M26.35,11.2095458 C25.6628955,11.5249538 24.9231056,11.7382514 24.1470946,11.8335545 C24.9395698,11.3434241 25.5476463,10.5662496 25.8341228,9.64044767 C25.0921377,10.0942722 24.2722222,10.4244295 23.3963286,10.601421 C22.6982479,9.83105395 21.7005195,9.35 20.5963227,9.35 C18.4790309,9.35 16.7612696,11.1255883 16.7612696,13.3152914 C16.7612696,13.6261612 16.7941979,13.9279545 16.8600546,14.2184022 C13.6714944,14.0527562 10.8451459,12.4757161 8.95176674,10.0738501 C8.62138581,10.6615528 8.4325967,11.3434241 8.4325967,12.0695432 C8.4325967,13.4446314 9.10982274,14.6586119 10.1393819,15.3699818 C9.51154839,15.3506943 8.91883841,15.170299 8.40076598,14.8753131 L8.40076598,14.9240992 C8.40076598,16.8460459 9.72338733,18.4491809 11.4795651,18.8122405 C11.157965,18.9052745 10.8188032,18.9517915 10.4686653,18.9517915 C10.2217028,18.9517915 9.98022833,18.9279658 9.74643717,18.8814488 C10.2348741,20.4562197 11.6507924,21.6032611 13.3301373,21.6338943 C12.0173945,22.6981127 10.362197,23.3323324 8.56540764,23.3323324 C8.25588132,23.3323324 7.94964783,23.3141794 7.65,23.2778735 C9.34800434,24.4010891 11.3654135,25.058 13.5310002,25.058 C20.5886394,25.058 24.4467424,19.0164615 24.4467424,13.7759233 C24.4467424,13.60347 24.4434496,13.4310167 24.4368639,13.2619671 C25.1865323,12.7026284 25.8374156,12.0048732 26.35,11.2095458" id="Twitter" fill="#0086FF"></path>
                </g>
            </g>
        </g>
    </g>
</svg>